<svg width="20" height="20" viewBox="0 0 20 20" fill="none" xmlns="http://www.w3.org/2000/svg">
<path d="M18.9325 11.4102C19.0081 10.944 19.0457 10.4724 19.045 10.0002C19.045 7.60129 18.0921 5.30066 16.3958 3.60439C14.6995 1.90813 12.3989 0.955175 10 0.955175C9.52774 0.954442 9.05619 0.992065 8.59001 1.06768C7.54457 0.441429 6.31987 0.182406 5.11039 0.331741C3.90091 0.481075 2.77599 1.0302 1.91427 1.89193C1.05254 2.75365 0.503414 3.87857 0.354079 5.08805C0.204745 6.29753 0.463767 7.52223 1.09001 8.56768C1.00564 9.04064 0.960486 9.51977 0.955014 10.0002C0.955014 12.3991 1.90797 14.6997 3.60423 16.396C5.3005 18.0922 7.60113 19.0452 10 19.0452C10.4723 19.0459 10.9438 19.0083 11.41 18.9327C12.4555 19.5589 13.6802 19.8179 14.8896 19.6686C16.0991 19.5193 17.224 18.9701 18.0858 18.1084C18.9475 17.2467 19.4966 16.1218 19.6459 14.9123C19.7953 13.7028 19.5363 12.4781 18.91 11.4327L18.9325 11.4102ZM14.2975 14.1102C13.8742 14.6955 13.2908 15.146 12.6175 15.4077C11.7868 15.7337 10.8997 15.8917 10.0075 15.8727C8.96904 15.9161 7.93591 15.7023 7.00001 15.2502C6.45438 14.9569 5.98647 14.5378 5.63501 14.0277C5.31308 13.5919 5.13011 13.0691 5.11001 12.5277C5.10922 12.3872 5.13746 12.2481 5.19295 12.119C5.24845 11.9899 5.33001 11.8737 5.43251 11.7777C5.65968 11.5843 5.9521 11.4851 6.25001 11.5002C6.49898 11.4955 6.74129 11.5807 6.93251 11.7402C7.14183 11.936 7.30347 12.1772 7.40501 12.4452C7.53513 12.7584 7.70125 13.0554 7.90001 13.3302C8.09811 13.5839 8.35572 13.7848 8.65001 13.9152C9.04975 14.0867 9.48293 14.1661 9.91751 14.1477C10.5365 14.1777 11.1496 14.0152 11.6725 13.6827C11.8732 13.5651 12.0401 13.3977 12.1571 13.1966C12.274 12.9956 12.337 12.7677 12.34 12.5352C12.3465 12.3723 12.3184 12.2099 12.2577 12.0587C12.1969 11.9075 12.1049 11.7708 11.9875 11.6577C11.7205 11.4116 11.3993 11.2318 11.05 11.1327C10.66 11.0052 10.1425 10.8777 9.49001 10.7352C8.74063 10.5607 8.00977 10.3146 7.30751 10.0002C6.75493 9.7737 6.26768 9.41278 5.89001 8.95018C5.53181 8.47336 5.34665 7.88877 5.36501 7.29268C5.35895 6.68668 5.55415 6.0958 5.92001 5.61267C6.3379 5.09349 6.89442 4.7034 7.52501 4.48767C8.32237 4.22284 9.16025 4.10096 10 4.12768C10.6571 4.11605 11.3121 4.20457 11.9425 4.39018C12.4373 4.53708 12.902 4.77071 13.315 5.08017C13.64 5.3243 13.9108 5.63334 14.11 5.98767C14.2721 6.2739 14.3598 6.59626 14.365 6.92518C14.3641 7.06539 14.335 7.20399 14.2796 7.3328C14.2242 7.46161 14.1436 7.57803 14.0425 7.67518C13.9404 7.78577 13.8162 7.87364 13.678 7.93308C13.5397 7.99252 13.3905 8.02219 13.24 8.02017C12.9987 8.03895 12.7596 7.9637 12.5725 7.81018C12.3757 7.62055 12.2111 7.40017 12.085 7.15768C11.8993 6.77542 11.6302 6.43969 11.2975 6.17517C10.861 5.90304 10.3471 5.78183 9.83501 5.83017C9.30932 5.80801 8.78843 5.93824 8.33501 6.20517C8.17031 6.29312 8.03122 6.42227 7.93132 6.58C7.83142 6.73774 7.77412 6.91869 7.76501 7.10518C7.75908 7.30894 7.8255 7.50822 7.95251 7.66768C8.10209 7.84099 8.28596 7.98144 8.49251 8.08017C8.71248 8.19396 8.94374 8.28446 9.18251 8.35018C9.42251 8.41768 9.81251 8.51517 10.36 8.64268C11.05 8.79268 11.665 8.95768 12.2275 9.13768C12.7307 9.29096 13.2102 9.51307 13.6525 9.79768C14.0383 10.0417 14.3558 10.3798 14.575 10.7802C14.7979 11.2369 14.9011 11.7427 14.875 12.2502C14.8818 12.9153 14.6798 13.5658 14.2975 14.1102Z" fill="white"/>
</svg>
